<svg width="27" height="19" viewBox="0 0 27 19" fill="none" xmlns="http://www.w3.org/2000/svg">
<path d="M24 9.73333C23.6 5.73333 20.1333 2.66667 16 2.66667C15.4667 2.66667 14.8 2.8 14.2667 2.93333C13.6 1.2 12 0 10 0C7.46667 0 5.33333 2.13333 5.33333 4.66667C5.33333 5.33333 5.46667 6.13333 5.86667 6.66667C2.53333 6.8 0 9.46667 0 12.6667C0 16 2.66667 18.6667 6 18.6667H22C24.5333 18.6667 26.6667 16.5333 26.6667 14C26.6667 12.1333 25.6 10.5333 24 9.73333ZM11.0667 16C10.2667 16 9.73333 15.4667 9.73333 14.6667C9.73333 13.8667 10.2667 13.3333 11.0667 13.3333C11.8667 13.3333 12.4 13.8667 12.4 14.6667C12.4 15.4667 11.7333 16 11.0667 16ZM16.4 16C15.6 16 15.0667 15.4667 15.0667 14.6667C15.0667 13.8667 15.6 13.3333 16.4 13.3333C17.2 13.3333 17.7333 13.8667 17.7333 14.6667C17.7333 15.4667 17.0667 16 16.4 16ZM19.2 7.46667L18.2667 11.4667C18.1333 11.7333 17.8667 12 17.6 12H9.86667C9.6 12 9.33333 11.7333 9.2 11.4667L8.13333 7.46667C8.13333 7.06667 8.4 6.66667 8.8 6.66667H18.5333C19.0667 6.66667 19.3333 7.06667 19.2 7.46667Z" fill="#212121"/>
</svg>
