<svg width="27" height="27" viewBox="0 0 27 27" fill="none" xmlns="http://www.w3.org/2000/svg">
<path d="M26.0946 15.8841L26.0666 15.862L24.1881 14.4272C24.0691 14.3356 23.9742 14.2178 23.911 14.0834C23.8479 13.9491 23.8184 13.8021 23.825 13.6545V12.9843C23.819 12.8377 23.8489 12.6918 23.9121 12.5585C23.9753 12.4253 24.0701 12.3086 24.1887 12.218L26.0666 10.7826L26.0946 10.7606C26.3842 10.5256 26.5786 10.198 26.6429 9.83621C26.7073 9.47448 26.6374 9.10225 26.4458 8.78609L23.9035 4.50203C23.9006 4.49799 23.898 4.49372 23.8958 4.48928C23.7032 4.17749 23.4045 3.94125 23.0517 3.82158C22.6988 3.70192 22.3141 3.70638 21.9643 3.8342L21.9434 3.84174L19.7351 4.70725C19.5957 4.76213 19.4449 4.78397 19.2952 4.77097C19.1454 4.75797 19.001 4.7105 18.8738 4.63246C18.6785 4.51266 18.4801 4.39942 18.2786 4.29275C18.1478 4.22373 18.0356 4.12575 17.951 4.00673C17.8663 3.8877 17.8115 3.75096 17.7911 3.60754L17.4583 1.31246L17.4512 1.27072C17.3787 0.915245 17.1829 0.594882 16.8965 0.363475C16.6101 0.132067 16.2507 0.00371889 15.8786 0H10.7881C10.4108 0.00117596 10.0459 0.13201 9.75793 0.369452C9.46992 0.606894 9.27719 0.935709 9.21369 1.29797L9.20834 1.33043L8.87679 3.63014C8.85645 3.77316 8.80211 3.90958 8.7181 4.02854C8.63409 4.14749 8.52272 4.24571 8.39286 4.31536C8.19069 4.42141 7.99217 4.53393 7.79763 4.65275C7.67064 4.73031 7.52657 4.77742 7.37726 4.79022C7.22795 4.80302 7.07765 4.78114 6.9387 4.72638L4.72859 3.85681L4.70775 3.8487C4.35743 3.72074 3.97214 3.71644 3.6189 3.83655C3.26567 3.95666 2.96684 4.19358 2.77443 4.50609L2.76669 4.51884L0.220862 8.8058C0.0289751 9.12228 -0.0410602 9.49492 0.0232795 9.85709C0.0876191 10.2192 0.282138 10.5473 0.572051 10.7826L0.600027 10.8046L2.47859 12.2394C2.59756 12.3311 2.6925 12.4489 2.75562 12.5832C2.81874 12.7176 2.84824 12.8646 2.84169 13.0122V13.6823C2.84765 13.829 2.81779 13.9749 2.75457 14.1081C2.69134 14.2414 2.59655 14.3581 2.478 14.4487L0.600027 15.8841L0.572051 15.9061C0.282425 16.1411 0.0880642 16.4687 0.0237248 16.8305C-0.0406147 17.1922 0.0292628 17.5644 0.220862 17.8806L2.76312 22.1646C2.76604 22.1687 2.76863 22.1729 2.77086 22.1774C2.96349 22.4892 3.26216 22.7254 3.615 22.8451C3.96785 22.9647 4.35258 22.9603 4.7024 22.8325L4.72323 22.8249L6.92977 21.9594C7.06915 21.9045 7.21993 21.8827 7.36968 21.8957C7.51943 21.9087 7.66387 21.9562 7.79108 22.0342C7.98632 22.1544 8.18473 22.2676 8.38632 22.3739C8.51702 22.4429 8.62923 22.5409 8.71391 22.6599C8.79859 22.779 8.85337 22.9157 8.87381 23.0591L9.20477 25.3542L9.21191 25.3959C9.28447 25.752 9.48086 26.0728 9.76798 26.3043C10.0551 26.5358 10.4154 26.6637 10.7881 26.6667H15.8786C16.2559 26.6655 16.6207 26.5347 16.9087 26.2972C17.1967 26.0598 17.3895 25.731 17.453 25.3687L17.4583 25.3362L17.7899 23.0365C17.8105 22.8932 17.8653 22.7566 17.9499 22.6377C18.0344 22.5187 18.1464 22.4206 18.2768 22.3513C18.4803 22.2446 18.6791 22.1316 18.872 22.0139C18.999 21.9364 19.1431 21.8892 19.2924 21.8764C19.4417 21.8636 19.592 21.8855 19.7309 21.9403L21.941 22.807L21.9619 22.8151C22.3122 22.9433 22.6975 22.9477 23.0508 22.8275C23.4041 22.7074 23.703 22.4704 23.8952 22.1577C23.8976 22.1533 23.9002 22.1491 23.9029 22.1449L26.4452 17.8614C26.6374 17.545 26.7077 17.1722 26.6435 16.8099C26.5792 16.4476 26.3847 16.1194 26.0946 15.8841ZM18.0899 13.5513C18.0465 14.449 17.7363 15.3152 17.1969 16.0443C16.6575 16.7735 15.9121 17.3344 15.0515 17.6587C14.1909 17.983 13.2521 18.0568 12.3492 17.871C11.4463 17.6853 10.6183 17.2481 9.96586 16.6126C9.31339 15.9771 8.86457 15.1706 8.67399 14.2913C8.48342 13.4119 8.55928 12.4976 8.89237 11.6595C9.22545 10.8213 9.80141 10.0955 10.5502 9.57026C11.299 9.04502 12.1883 8.74298 13.1101 8.70087C13.7719 8.67249 14.4325 8.77854 15.0499 9.01226C15.6673 9.24599 16.228 9.60228 16.6963 10.0585C17.1647 10.5147 17.5304 11.0608 17.7704 11.6621C18.0103 12.2634 18.1191 12.9068 18.0899 13.5513Z" fill="#212121"/>
</svg>
