<svg width="40" height="24" viewBox="0 0 40 24" fill="none" xmlns="http://www.w3.org/2000/svg">
<path fill-rule="evenodd" clip-rule="evenodd" d="M9.09875 0C14.1243 0 18.1986 4.06891 18.1986 9.08914C18.1986 16.214 13.2986 20.2786 7.96127 23.8767C7.35476 24.2848 6.6014 23.6024 6.95042 22.9594C7.78783 21.4128 8.36348 19.8216 8.505 18.1592C3.75612 17.853 0 13.9095 0 9.08914C0 4.06891 4.07427 0 9.09875 0Z" fill="#259D65"/>
<path fill-rule="evenodd" clip-rule="evenodd" d="M30.9011 0C35.9256 0 39.9998 4.06891 39.9998 9.08914C39.9998 16.214 35.1009 20.2786 29.7636 23.8767C29.1571 24.2848 28.4037 23.6024 28.7517 22.9594C29.5891 21.4128 30.1658 19.8216 30.3063 18.1592C25.5585 17.853 21.8013 13.9095 21.8013 9.08914C21.8013 4.06891 25.8755 0 30.9011 0Z" fill="#259D65"/>
</svg>
